<svg width="77" height="70" viewBox="0 0 77 70" fill="none" xmlns="http://www.w3.org/2000/svg">
<rect width="77" height="70" rx="16" fill="#686B7A"/>
<path d="M31.4321 19.5169C24.4345 18.2441 18.9003 19.5786 16.6968 23.397C15.0483 26.251 15.5193 30.0301 17.8182 34.0504C17.8626 34.1365 17.924 34.2127 17.9986 34.2744C18.0733 34.3361 18.1596 34.3821 18.2525 34.4096C18.3454 34.4371 18.4429 34.4454 18.5391 34.4342C18.6354 34.423 18.7283 34.3924 18.8124 34.3443C18.8965 34.2962 18.9699 34.2316 19.0284 34.1543C19.0868 34.0771 19.129 33.9888 19.1524 33.8948C19.1758 33.8008 19.18 33.703 19.1646 33.6074C19.1492 33.5118 19.1147 33.4202 19.063 33.3383C16.9771 29.6993 16.5734 26.436 17.9415 24.0979C19.775 20.9243 24.7093 19.7356 31.1798 20.9131L31.2976 20.9691C31.4782 20.9728 31.6536 20.9082 31.7887 20.7882C31.9239 20.6682 32.0087 20.5017 32.0264 20.3219C32.0441 20.142 31.9934 19.9621 31.8842 19.8181C31.7751 19.6741 31.6157 19.5765 31.4377 19.5449L31.4321 19.5169ZM21.2048 40.392C24.3259 43.7357 27.9392 46.5833 31.9199 48.8362C42.0687 54.7012 52.8791 56.2936 58.2114 52.6322C58.3119 52.5678 58.3944 52.479 58.4513 52.3741C58.5082 52.2692 58.5375 52.1516 58.5367 52.0322C58.5309 51.9045 58.4912 51.7807 58.4216 51.6735C58.352 51.5663 58.255 51.4797 58.1406 51.4225C58.0263 51.3653 57.8988 51.3397 57.7713 51.3484C57.6437 51.357 57.5208 51.3995 57.4152 51.4715C52.6044 54.7012 42.3603 53.2097 32.6376 47.597C28.7887 45.4163 25.2962 42.6593 22.2814 39.422C22.2097 39.3455 22.1228 39.285 22.0261 39.2445C21.9295 39.2039 21.8255 39.1841 21.7207 39.1865C21.5304 39.1865 21.3478 39.2621 21.2132 39.3967C21.0786 39.5313 21.003 39.7138 21.003 39.9042C21.0039 40.0837 21.0696 40.257 21.188 40.392H21.2048Z" fill="#9FEAF9"/>
<path d="M56.7652 38.1043C61.3461 32.6935 62.9329 27.2435 60.7462 23.4363C59.1258 20.6327 55.6998 19.1469 51.1525 19.0908C50.9622 19.0908 50.7796 19.1664 50.645 19.301C50.5104 19.4356 50.4348 19.6181 50.4348 19.8085C50.4348 19.9988 50.5104 20.1814 50.645 20.316C50.7796 20.4506 50.9622 20.5262 51.1525 20.5262C55.2457 20.5767 58.195 21.8551 59.5182 24.154C61.3462 27.3163 59.922 32.1721 55.683 37.1792C55.5603 37.3279 55.5018 37.5192 55.5202 37.7111C55.5386 37.903 55.6324 38.0798 55.7811 38.2025C55.9299 38.3251 56.1212 38.3837 56.3131 38.3653C56.505 38.3469 56.6817 38.253 56.8044 38.1043H56.7652ZM43.8689 18.8273C39.372 19.8431 35.0583 21.5452 31.0792 23.8736C20.6445 29.9405 13.7815 38.8725 14.7347 45.3431C14.7622 45.5319 14.8636 45.7021 15.0166 45.8162C15.1696 45.9303 15.3616 45.9789 15.5505 45.9514C15.7393 45.9239 15.9095 45.8225 16.0236 45.6695C16.1377 45.5165 16.1864 45.3244 16.1588 45.1356C15.3066 39.3884 21.7659 30.9329 31.8194 25.1408C35.6668 22.8775 39.841 21.2225 44.1942 20.2346C44.3715 20.203 44.5304 20.1058 44.6394 19.9624C44.7484 19.819 44.7995 19.6399 44.7826 19.4606C44.7656 19.2813 44.6819 19.1149 44.5479 18.9944C44.414 18.874 44.2397 18.8083 44.0596 18.8104C44.0055 18.8046 43.951 18.8046 43.897 18.8104L43.8689 18.8273Z" fill="#9FEAF9"/>
<path d="M28.0064 50.7538C30.4007 57.443 34.32 61.5642 38.7327 61.5642C41.9456 61.5642 44.9005 59.3719 47.2387 55.5142C47.3102 55.4021 47.3473 55.2715 47.3452 55.1385C47.3446 54.9816 47.2926 54.8291 47.1972 54.7045C47.1017 54.5799 46.968 54.4901 46.8166 54.4487C46.6652 54.4074 46.5043 54.4168 46.3588 54.4756C46.2132 54.5343 46.091 54.6392 46.0107 54.7741C43.9249 58.2449 41.3625 60.1288 38.7215 60.1288C35.0601 60.1288 31.5613 56.4562 29.3465 50.2716C29.2913 50.1115 29.1812 49.976 29.0356 49.8892C28.8901 49.8025 28.7186 49.77 28.5515 49.7975C28.3843 49.825 28.2322 49.9108 28.1222 50.0396C28.0122 50.1685 27.9514 50.3321 27.9504 50.5015C27.9484 50.5877 27.9637 50.6735 27.9952 50.7538H28.0064ZM51.2421 48.9652C52.5467 44.6515 53.195 40.1661 53.1653 35.6596C53.1653 23.7726 48.9881 13.5229 43.0726 10.8764C42.9854 10.8406 42.8922 10.8216 42.7979 10.8203C42.6341 10.8192 42.4748 10.8741 42.3466 10.9759C42.2183 11.0778 42.1287 11.2204 42.0927 11.3802C42.0567 11.54 42.0764 11.7073 42.1486 11.8543C42.2208 12.0013 42.341 12.1192 42.4895 12.1885C47.7657 14.549 51.7187 24.2773 51.7187 35.6596C51.7517 40.0264 51.1299 44.3734 49.874 48.5558C49.8515 48.6285 49.8401 48.7041 49.8403 48.7801C49.8403 48.9705 49.9159 49.153 50.0505 49.2876C50.1851 49.4222 50.3677 49.4978 50.558 49.4978C50.7131 49.4971 50.8638 49.4466 50.988 49.3537C51.1122 49.2609 51.2032 49.1305 51.2477 48.982L51.2421 48.9652ZM63.3926 47.8438C63.3993 47.1626 63.2034 46.4948 62.8298 45.9251C62.4562 45.3555 61.9217 44.9097 61.2943 44.6444C60.6668 44.3791 59.9747 44.3062 59.3058 44.435C58.6368 44.5638 58.0213 44.8884 57.5372 45.3678C57.0531 45.8471 56.7224 46.4594 56.5871 47.1271C56.4517 47.7947 56.5178 48.4875 56.7769 49.1176C57.036 49.7476 57.4765 50.2864 58.0425 50.6656C58.6084 51.0447 59.2742 51.2472 59.9555 51.2472C60.4066 51.248 60.8534 51.1598 61.2704 50.9876C61.6874 50.8155 62.0663 50.5629 62.3855 50.2442C62.7048 49.9254 62.958 49.5469 63.1309 49.1302C63.3037 48.7135 63.3926 48.2668 63.3926 47.8157V47.8438ZM61.9572 47.8438C61.9572 48.2397 61.8398 48.6267 61.6198 48.9558C61.3999 49.285 61.0873 49.5416 60.7215 49.6931C60.3557 49.8446 59.9533 49.8842 59.565 49.807C59.1767 49.7298 58.82 49.5391 58.54 49.2592C58.2601 48.9792 58.0694 48.6226 57.9922 48.2343C57.915 47.846 57.9546 47.4435 58.1061 47.0777C58.2576 46.712 58.5142 46.3993 58.8434 46.1794C59.1726 45.9594 59.5596 45.842 59.9555 45.842C60.2185 45.8413 60.4792 45.8926 60.7224 45.9929C60.9656 46.0932 61.1865 46.2407 61.3726 46.4267C61.5586 46.6127 61.706 46.8337 61.8063 47.0769C61.9067 47.32 61.9579 47.5807 61.9572 47.8438ZM17.4371 52.1892C18.1169 52.1892 18.7815 51.9876 19.3467 51.61C19.9119 51.2323 20.3525 50.6955 20.6126 50.0674C20.8728 49.4394 20.9408 48.7483 20.8082 48.0815C20.6756 47.4148 20.3482 46.8024 19.8675 46.3217C19.3869 45.841 18.7744 45.5136 18.1077 45.381C17.4409 45.2484 16.7498 45.3165 16.1218 45.5766C15.4937 45.8368 14.9569 46.2773 14.5793 46.8425C14.2016 47.4078 14 48.0723 14 48.7521C14 49.6637 14.3621 50.5379 15.0067 51.1825C15.6513 51.8271 16.5255 52.1892 17.4371 52.1892ZM17.4371 50.7538C17.0412 50.7538 16.6542 50.6364 16.325 50.4165C15.9959 50.1965 15.7393 49.8839 15.5878 49.5181C15.4363 49.1524 15.3966 48.7499 15.4739 48.3616C15.5511 47.9733 15.7418 47.6166 16.0217 47.3367C16.3016 47.0567 16.6583 46.8661 17.0466 46.7888C17.4349 46.7116 17.8374 46.7512 18.2032 46.9027C18.5689 47.0542 18.8815 47.3108 19.1015 47.64C19.3215 47.9692 19.4388 48.3562 19.4388 48.7521C19.4388 49.283 19.228 49.7921 18.8526 50.1675C18.4772 50.5429 17.968 50.7538 17.4371 50.7538Z" fill="#9FEAF9"/>
<path d="M38.7325 14.8743C39.4123 14.8743 40.0769 14.6727 40.6421 14.295C41.2073 13.9173 41.6479 13.3805 41.908 12.7525C42.1682 12.1244 42.2362 11.4333 42.1036 10.7666C41.971 10.0998 41.6436 9.4874 41.163 9.00671C40.6823 8.52602 40.0698 8.19867 39.4031 8.06605C38.7363 7.93342 38.0453 8.00149 37.4172 8.26164C36.7892 8.52179 36.2523 8.96233 35.8747 9.52756C35.497 10.0928 35.2954 10.7573 35.2954 11.4371C35.2954 11.8882 35.3844 12.3349 35.5572 12.7516C35.73 13.1683 35.9832 13.5468 36.3025 13.8656C36.6217 14.1843 37.0007 14.4369 37.4176 14.6091C37.8346 14.7812 38.2814 14.8694 38.7325 14.8687V14.8743ZM38.7325 13.4389C38.3364 13.44 37.9488 13.3235 37.6189 13.1042C37.289 12.885 37.0316 12.5727 36.8792 12.207C36.7268 11.8414 36.6864 11.4387 36.763 11.0501C36.8396 10.6614 37.0298 10.3042 37.3095 10.0237C37.5892 9.74319 37.9459 9.55198 38.3343 9.47429C38.7228 9.3966 39.1256 9.43591 39.4917 9.58725C39.8577 9.73859 40.1707 9.99515 40.3909 10.3245C40.6111 10.6538 40.7286 11.041 40.7287 11.4371C40.7287 11.9665 40.5183 12.4743 40.144 12.8486C39.7697 13.2229 39.2619 13.4332 38.7325 13.4332V13.4389ZM39.254 34.5719C38.9352 34.6411 38.6058 34.6469 38.2847 34.5889C37.9637 34.5309 37.6572 34.4101 37.3828 34.2336C37.1084 34.0571 36.8714 33.8283 36.6855 33.5602C36.4995 33.292 36.3682 32.9899 36.2991 32.6711C36.2635 32.4976 36.2447 32.3211 36.243 32.144C36.2431 31.6753 36.3758 31.2163 36.6257 30.8198C36.8756 30.4234 37.2326 30.1057 37.6555 29.9036C38.0783 29.7014 38.5496 29.623 39.0151 29.6773C39.4806 29.7317 39.9213 29.9167 40.2861 30.2109C40.6509 30.505 40.9251 30.8964 41.0769 31.3398C41.2287 31.7832 41.252 32.2605 41.1441 32.7165C41.0362 33.1726 40.8014 33.5888 40.4669 33.9171C40.1325 34.2454 39.712 34.4724 39.254 34.5719Z" fill="#9FEAF9"/>
</svg>
