<svg width="77" height="70" viewBox="0 0 77 70" fill="none" xmlns="http://www.w3.org/2000/svg">
<rect width="77" height="70" rx="16" fill="#BDEBFF"/>
<mask id="mask0_275_383" style="mask-type:luminance" maskUnits="userSpaceOnUse" x="11" y="19" width="54" height="33">
<path d="M11 19H65V51.4H11V19Z" fill="white"/>
</mask>
<g mask="url(#mask0_275_383)">
<path fill-rule="evenodd" clip-rule="evenodd" d="M38 19C30.8 19 26.3 22.6 24.5 29.8C27.2 26.2 30.35 24.85 33.95 25.75C36.004 26.263 37.472 27.754 39.097 29.403C41.744 32.09 44.808 35.2 51.5 35.2C58.7 35.2 63.2 31.6 65 24.4C62.3 28 59.15 29.35 55.55 28.45C53.496 27.937 52.028 26.446 50.403 24.797C47.756 22.11 44.692 19 38 19ZM24.5 35.2C17.3 35.2 12.8 38.8 11 46C13.7 42.4 16.85 41.05 20.45 41.95C22.504 42.464 23.972 43.954 25.597 45.603C28.244 48.29 31.308 51.4 38 51.4C45.2 51.4 49.7 47.8 51.5 40.6C48.8 44.2 45.65 45.55 42.05 44.65C39.996 44.137 38.528 42.646 36.903 40.997C34.256 38.31 31.192 35.2 24.5 35.2Z" fill="#38BDF8"/>
</g>
</svg>
