<svg width="77" height="70" viewBox="0 0 77 70" fill="none" xmlns="http://www.w3.org/2000/svg">
<rect width="77" height="70" rx="16" fill="#DFD3FF"/>
<path d="M61.109 18.8552L39.3745 57.7205C39.2724 57.9031 39.1236 58.0553 38.9433 58.1615C38.7631 58.2677 38.5578 58.3242 38.3486 58.3251C38.1394 58.326 37.9336 58.2713 37.7525 58.1667C37.5713 58.062 37.4212 57.9111 37.3174 57.7294L15.1522 18.86C15.0423 18.665 14.9901 18.4427 15.0016 18.2192C15.0131 17.9956 15.0878 17.7799 15.2172 17.5972C15.3465 17.4145 15.5251 17.2723 15.7322 17.1872C15.9392 17.1021 16.1662 17.0775 16.3866 17.1164L38.1437 21.0003C38.2824 21.0254 38.4244 21.0254 38.5631 21.0003L59.8663 17.1164C60.0869 17.0762 60.3142 17.0996 60.522 17.1837C60.7297 17.2679 60.9092 17.4095 61.0395 17.5919C61.1698 17.7743 61.2455 17.9899 61.2578 18.2137C61.2701 18.4375 61.2185 18.6596 61.109 18.8552Z" fill="url(#paint0_linear_275_382)"/>
<path d="M48.5079 12.0111L32.4271 15.164C32.2986 15.1891 32.182 15.2563 32.0959 15.355C32.0097 15.4536 31.9588 15.5781 31.9512 15.7089L30.9625 32.4196C30.9569 32.5114 30.9728 32.6032 31.0089 32.6877C31.045 32.7723 31.1004 32.8472 31.1706 32.9065C31.2408 32.9659 31.3239 33.008 31.4133 33.0295C31.5026 33.0511 31.5958 33.0514 31.6853 33.0306L36.163 31.9931C36.2593 31.9704 36.3598 31.9723 36.4552 31.9986C36.5506 32.0249 36.6378 32.0747 36.7089 32.1436C36.78 32.2124 36.8326 32.298 36.862 32.3925C36.8913 32.487 36.8964 32.5874 36.8768 32.6844L35.5395 39.2007C35.5189 39.3009 35.5247 39.4048 35.5563 39.5022C35.588 39.5996 35.6444 39.687 35.7201 39.7559C35.7957 39.8249 35.888 39.873 35.9879 39.8955C36.0878 39.9179 36.1918 39.9141 36.2897 39.8842L39.0559 39.0442C39.154 39.0146 39.2581 39.0111 39.358 39.034C39.4579 39.0568 39.5501 39.1053 39.6256 39.1747C39.701 39.244 39.7571 39.3318 39.7883 39.4294C39.8196 39.527 39.8248 39.6311 39.8036 39.7313L37.69 49.9632C37.6615 50.0984 37.6812 50.2393 37.7458 50.3613C37.8104 50.4834 37.9158 50.5789 38.0436 50.6313C38.1715 50.6837 38.3136 50.6896 38.4453 50.6479C38.577 50.6063 38.6899 50.5198 38.7644 50.4034L39.0023 50.0334L52.1081 23.8778C52.1577 23.7792 52.1787 23.6688 52.1687 23.5589C52.1588 23.449 52.1182 23.3441 52.0516 23.2562C51.985 23.1682 51.895 23.1007 51.792 23.0612C51.689 23.0218 51.5769 23.012 51.4686 23.033L46.8583 23.9254C46.7592 23.9442 46.6568 23.9373 46.5611 23.9054C46.4653 23.8735 46.3794 23.8176 46.3113 23.7431C46.2433 23.6685 46.1955 23.5778 46.1724 23.4796C46.1493 23.3813 46.1518 23.2788 46.1796 23.1818L49.1896 12.7511C49.2172 12.654 49.2194 12.5515 49.196 12.4533C49.1725 12.3551 49.1243 12.2645 49.0559 12.1903C48.9875 12.116 48.9012 12.0606 48.8053 12.0292C48.7093 11.9978 48.607 11.9916 48.5079 12.0111Z" fill="url(#paint1_linear_275_382)"/>
<defs>
<linearGradient id="paint0_linear_275_382" x1="14.6299" y1="20.2718" x2="38.0414" y2="52.0732" gradientUnits="userSpaceOnUse">
<stop stop-color="#41D1FF"/>
<stop offset="1" stop-color="#BD34FE"/>
</linearGradient>
<linearGradient id="paint1_linear_275_382" x1="40.1665" y1="12.8509" x2="44.9626" y2="45.938" gradientUnits="userSpaceOnUse">
<stop stop-color="#FFEA83"/>
<stop offset="0.083" stop-color="#FFDD35"/>
<stop offset="1" stop-color="#FFA800"/>
</linearGradient>
</defs>
</svg>
