<?xml version="1.0" standalone="no"?>
<!DOCTYPE svg PUBLIC "-//W3C//DTD SVG 1.0//EN" "http://www.w3.org/TR/2001/REC-SVG-20010904/DTD/svg10.dtd">
<svg xmlns="http://www.w3.org/2000/svg" xmlns:xlink="http://www.w3.org/1999/xlink" id="body_1" width="3" height="3">

<g transform="matrix(0.038961038 0 0 0.038961038 -0 0.13636363)">
    <path d="M0 16C 0 7.163444 7.163444 0 16 0L16 0L61 0C 69.836555 0 77 7.163444 77 16L77 16L77 54C 77 62.836555 69.836555 70 61 70L61 70L16 70C 7.163444 70 0 62.836555 0 54L0 54L0 16z" stroke="none" fill="#FFE087" fill-rule="nonzero" />
    <path d="M36.3474 35.4774C 40.0606 31.9399 38.9238 27.5688 35.5649 22.267C 32.2059 16.9652 25.436 15.0808 24.1698 16.2817C 22.9036 17.4826 22.6353 26.0897 25.9933 31.3855C 29.3513 36.6812 32.6369 39.0127 36.3474 35.4774z" stroke="none" fill="none" />
    <path d="M39.557 35.9675C 42.3041 40.2982 45.9726 38.7124 50.52 34.3831C 55.0675 30.0537 56.9473 21.7616 56.0156 20.2866C 55.0838 18.8116 47.982 18.8901 43.4379 23.2198C 38.8938 27.5495 36.8108 31.636 39.5579 35.9667L39.5579 35.9667L39.557 35.9675z" stroke="none" fill="none" />
    <path d="M38.0558 33.5856C 42.6211 34.1461 44.4125 29.9335 45.2486 23.1246C 46.0846 16.3156 42.6345 9.11788 41.0835 8.92745C 39.5325 8.73701 34.3222 14.8714 33.4862 21.6803C 32.6501 28.4893 33.4959 33.0257 38.0558 33.5856z" stroke="none" fill="none" />
    <path d="M36.9062 63.6972C 46.4661 63.6972 54.2188 60.9203 54.2188 48.3259C 54.2188 35.7316 46.4667 25.3972 36.9062 25.3972C 27.3458 25.3972 19.5996 35.7322 19.5996 48.3259C 19.5996 60.9197 27.3464 63.6972 36.9062 63.6972z" stroke="none" fill="none" />
    <path d="M45.6509 45.7544C 47.0171 45.7544 48.1245 45.2394 48.1245 44.6042C 48.1245 43.969 47.0171 43.454 45.6509 43.454C 44.2847 43.454 43.1772 43.969 43.1772 44.6042C 43.1772 45.2394 44.2847 45.7544 45.6509 45.7544z" stroke="none" fill="#EAADCC" fill-rule="nonzero" />
    <path d="M27.3384 45.0565C 28.6944 45.223 29.8564 44.8468 29.9338 44.2163C 30.0112 43.5858 28.9748 42.9398 27.6188 42.7733C 26.2628 42.6068 25.1008 42.9829 25.0234 43.6134C 24.946 44.2439 25.9825 44.89 27.3384 45.0565z" stroke="none" fill="#EAADCC" fill-rule="nonzero" />
    <path d="M23.7979 49.4933L32.3072 58.3475" stroke="#ECB732" stroke-width="1" stroke-linecap="square" fill="none" />
    <path d="M31.1572 50.5283L25.7529 56.278" stroke="#ECB732" stroke-width="1" stroke-linecap="square" fill="none" />
    <path d="M49.9058 49.4956L41.397 58.3499" stroke="#ECB732" stroke-width="1" stroke-linecap="square" fill="none" />
    <path d="M42.5464 50.5307L47.9507 56.2804" stroke="#ECB732" stroke-width="1" stroke-linecap="square" fill="none" />
    <path d="M40.3599 29.9409L34.7253 35.5755" stroke="#FFC73B" stroke-width="1" stroke-linecap="square" fill="none" />
    <path d="M39.2093 35.5766L33.5747 29.942" stroke="#FFC73B" stroke-width="1" stroke-linecap="square" fill="none" />
    <path d="M44.9595 39.7311C 45.4769 39.7137 45.9843 39.8762 46.3953 40.1909C 46.8063 40.5057 47.0955 40.9532 47.2135 41.4573C 47.3315 41.9613 47.2711 42.4907 47.0425 42.9552C 46.8139 43.4197 46.4314 43.7905 45.96 44.0046C 45.4886 44.2186 44.9576 44.2626 44.4575 44.129C 43.9574 43.9953 43.519 43.6924 43.2172 43.2719C 42.9153 42.8513 42.7687 42.339 42.8022 41.8224C 42.8357 41.3058 43.0473 40.8169 43.401 40.4388C 43.8062 40.0057 44.3667 39.7511 44.9595 39.7311z" stroke="none" fill="#000000" fill-rule="nonzero" />
    <path d="M46.9613 41.8987C 46.9748 42.279 46.8753 42.6548 46.6752 42.9786C 46.4752 43.3024 46.1836 43.5596 45.8375 43.7177C 45.4913 43.8758 45.106 43.9278 44.7303 43.867C 44.3546 43.8061 44.0053 43.6353 43.7267 43.376C 43.4481 43.1168 43.2526 42.7807 43.1649 42.4104C 43.0772 42.04 43.1013 41.652 43.2342 41.2953C 43.367 40.9387 43.6026 40.6294 43.9111 40.4066C 44.2197 40.1838 44.5874 40.0575 44.9677 40.0436C 45.2204 40.0344 45.4725 40.0751 45.7095 40.1633C 45.9465 40.2516 46.1638 40.3857 46.3489 40.558C 46.5341 40.7303 46.6835 40.9373 46.7885 41.1674C 46.8936 41.3974 46.9523 41.6459 46.9613 41.8987zM47.5853 41.8769C 47.5676 41.3724 47.4008 40.8846 47.1059 40.4749C 46.8111 40.0653 46.4013 39.7523 45.9285 39.5756C 45.4558 39.3988 44.9412 39.3662 44.4499 39.4819C 43.9586 39.5976 43.5126 39.8563 43.1684 40.2255C 42.8242 40.5946 42.5971 41.0576 42.516 41.5557C 42.4349 42.0539 42.5033 42.5649 42.7126 43.0242C 42.9219 43.4835 43.2627 43.8704 43.6919 44.136C 44.1211 44.4016 44.6195 44.534 45.1239 44.5164C 45.8003 44.4927 46.4396 44.2014 46.9012 43.7064C 47.3628 43.2114 47.6089 42.5533 47.5853 41.8769z" stroke="#FFFFFF" stroke-width="0.05" fill="#FFFFFF" fill-rule="nonzero" />
    <path d="M45.0771 41.6027C 45.0721 41.4586 45.0244 41.3193 44.9402 41.2023C 44.856 41.0853 44.739 40.996 44.604 40.9455C 44.469 40.895 44.322 40.8857 44.1817 40.9187C 44.0414 40.9518 43.914 41.0257 43.8157 41.1311C 43.7174 41.2365 43.6526 41.3687 43.6294 41.511C 43.6063 41.6533 43.6258 41.7992 43.6856 41.9304C 43.7453 42.0615 43.8427 42.172 43.9652 42.2479C 44.0878 42.3237 44.2301 42.3615 44.3742 42.3565C 44.5674 42.3497 44.7499 42.2665 44.8818 42.1252C 45.0136 41.9838 45.0839 41.7959 45.0771 41.6027z" stroke="none" fill="#FFFFFF" fill-rule="nonzero" />
    <path d="M39.2519 45.593C 38.7366 46.022 38.1376 46.339 37.4931 46.5238C 36.8485 46.7086 36.1726 46.7572 35.5082 46.6664C 34.8863 46.6281 34.2811 46.4499 33.7376 46.1451C 33.1942 45.8403 32.7265 45.4167 32.3696 44.906" stroke="#000000" stroke-width="0.5" stroke-linecap="square" fill="none" />
    <path d="M28.4884 39.3869C 28.9936 39.369 29.4893 39.5269 29.8912 39.8336C 30.293 40.1403 30.576 40.5769 30.692 41.0689C 30.808 41.5609 30.7497 42.078 30.5272 42.5318C 30.3047 42.9857 29.9316 43.3484 29.4716 43.558C 29.0116 43.7677 28.4932 43.8113 28.0046 43.6815C 27.5161 43.5517 27.0877 43.2564 26.7924 42.8461C 26.4972 42.4358 26.3533 41.9358 26.3855 41.4313C 26.4176 40.9268 26.6237 40.4491 26.9686 40.0795C 27.3634 39.6565 27.91 39.4074 28.4884 39.3869z" stroke="none" fill="#000000" fill-rule="nonzero" />
    <path d="M28.6045 41.2134C 28.5996 41.0727 28.5531 40.9365 28.4708 40.8222C 28.3885 40.7079 28.2741 40.6205 28.1422 40.5712C 28.0103 40.5219 27.8667 40.5128 27.7296 40.5451C 27.5925 40.5773 27.468 40.6496 27.3719 40.7526C 27.2759 40.8556 27.2125 40.9848 27.1899 41.1238C 27.1672 41.2628 27.1863 41.4054 27.2447 41.5336C 27.3031 41.6618 27.3983 41.7698 27.518 41.8439C 27.6378 41.918 27.7769 41.9549 27.9176 41.95C 28.1064 41.9434 28.2848 41.8621 28.4136 41.724C 28.5425 41.5858 28.6111 41.4022 28.6045 41.2134z" stroke="none" fill="#FFFFFF" fill-rule="nonzero" />
    <path d="M30.4437 41.5047C 30.4583 41.9391 30.3219 42.3652 30.0577 42.7103C 29.7935 43.0555 29.4178 43.2983 28.9946 43.3975C 28.5714 43.4967 28.1269 43.4461 27.7368 43.2544C 27.3467 43.0626 27.0352 42.7416 26.8553 42.3459C 26.6754 41.9502 26.6382 41.5044 26.7501 41.0844C 26.862 40.6643 27.1161 40.2961 27.4691 40.0424C 27.822 39.7887 28.252 39.6652 28.6858 39.693C 29.1196 39.7208 29.5303 39.8981 29.848 40.1947C 30.0285 40.3632 30.174 40.5656 30.2762 40.7904C 30.3784 41.0152 30.4353 41.2579 30.4437 41.5047zM31.0528 41.4834C 31.0356 40.9916 30.873 40.5158 30.5854 40.1164C 30.2979 39.7169 29.8983 39.4117 29.4373 39.2394C 28.9763 39.067 28.4745 39.0352 27.9955 39.148C 27.5164 39.2608 27.0815 39.5132 26.7459 39.8731C 26.4102 40.2331 26.1888 40.6845 26.1097 41.1703C 26.0306 41.656 26.0973 42.1544 26.3014 42.6022C 26.5055 43.0501 26.8378 43.4274 27.2564 43.6864C 27.6749 43.9454 28.1608 44.0744 28.6527 44.0572C 29.3123 44.0342 29.9357 43.7501 30.3858 43.2674C 30.8359 42.7847 31.0758 42.143 31.0528 41.4834z" stroke="#FFFFFF" stroke-width="0.05" fill="#FFFFFF" fill-rule="nonzero" />
</g>
</svg>