<?xml version="1.0" standalone="no"?>
<!DOCTYPE svg PUBLIC "-//W3C//DTD SVG 1.0//EN" "http://www.w3.org/TR/2001/REC-SVG-20010904/DTD/svg10.dtd">
<svg xmlns="http://www.w3.org/2000/svg" xmlns:xlink="http://www.w3.org/1999/xlink" id="body_1" width="3" height="3">

<g transform="matrix(0.038961038 0 0 0.038961038 -0 0.13636363)">
    <path d="M0 16C 0 7.163444 7.163444 0 16 0L16 0L61 0C 69.836555 0 77 7.163444 77 16L77 16L77 54C 77 62.836555 69.836555 70 61 70L61 70L16 70C 7.163444 70 0 62.836555 0 54L0 54L0 16z" stroke="none" fill="#BDEBFF" fill-rule="nonzero" />
    <path d="M11 19L65 19L65 51.4L11 51.4L11 19z" stroke="none" fill="#bdebff" fill-rule="nonzero" />
	<g>
        <path d="M38 19C 30.8 19 26.3 22.6 24.5 29.8C 27.2 26.2 30.35 24.85 33.95 25.75C 36.004 26.263 37.472 27.754 39.097 29.403C 41.744 32.09 44.808 35.2 51.5 35.2C 58.7 35.2 63.2 31.6 65 24.4C 62.3 28 59.15 29.35 55.55 28.45C 53.496 27.937 52.028 26.446 50.403 24.797C 47.756 22.11 44.692 19 38 19zM24.5 35.2C 17.3 35.2 12.8 38.8 11 46C 13.7 42.4 16.85 41.05 20.45 41.95C 22.504 42.464 23.972 43.954 25.597 45.603C 28.244 48.29 31.308 51.4 38 51.4C 45.2 51.4 49.7 47.8 51.5 40.6C 48.8 44.2 45.65 45.55 42.05 44.65C 39.996 44.137 38.528 42.646 36.903 40.997C 34.256 38.31 31.192 35.2 24.5 35.2z" stroke="none" fill="#38BDF8" fill-rule="nonzero" />
	</g>
</g>
</svg>